<svg width="192" height="192" viewBox="0 0 192 192" fill="none" xmlns="http://www.w3.org/2000/svg">
<rect width="192" height="192" rx="29.8943" fill="url(#paint0_linear_730_88)"/>
<path fill-rule="evenodd" clip-rule="evenodd" d="M71.5709 37.3216C73.4806 33.2975 77.6001 30.5012 82.3607 30.5012H109.642C114.403 30.5012 118.516 33.2975 120.432 37.3216C125.09 37.3625 128.726 37.5739 131.972 38.8425C135.848 40.3585 139.218 42.9348 141.698 46.2767C144.201 49.646 145.381 53.9633 146.991 59.9039L152.052 78.469L153.961 84.2049L154.125 84.4096C160.27 92.2803 157.344 103.984 151.492 127.385C147.768 142.274 145.913 149.715 140.361 154.053C134.81 158.384 127.137 158.384 111.791 158.384H80.2123C64.8664 158.384 57.1935 158.384 51.6417 154.053C46.0899 149.715 44.2279 142.274 40.5108 127.385C34.6589 103.984 31.7329 92.2803 37.8781 84.4096L38.0418 84.2049L39.9515 78.469L45.0123 59.9039C46.6287 53.9633 47.8086 49.6392 50.3049 46.2699C52.7856 42.9305 56.1561 40.3566 60.0308 38.8425C63.2773 37.5739 66.9057 37.3557 71.5709 37.3216ZM71.5845 47.5726C67.0694 47.6203 65.2552 47.7909 63.7547 48.3774C61.6674 49.1937 59.8521 50.5811 58.5166 52.381C57.3162 53.9974 56.6069 56.255 54.629 63.5323L50.7414 77.7801C57.6982 76.5388 67.2058 76.5388 80.2055 76.5388H111.791C124.797 76.5388 134.298 76.5388 141.255 77.7665L137.374 63.5187C135.396 56.2413 134.687 53.9838 133.486 52.3673C132.151 50.5675 130.336 49.18 128.248 48.3638C126.748 47.7772 124.934 47.6067 120.419 47.559C119.45 49.5972 117.924 51.3192 116.016 52.5252C114.109 53.7311 111.899 54.3717 109.642 54.3725H82.3607C80.1049 54.3723 77.8952 53.7328 75.988 52.528C74.0807 51.3233 72.5539 49.6096 71.5845 47.5726Z" fill="white"/>
<rect x="68.127" y="97" width="13.6408" height="28.6457" rx="6.82039" fill="#0F61FA"/>
<rect x="110.232" y="97" width="13.6408" height="28.6457" rx="6.82039" fill="#0F61FA"/>
<defs>
<linearGradient id="paint0_linear_730_88" x1="96" y1="0" x2="96" y2="192" gradientUnits="userSpaceOnUse">
<stop stop-color="#0E62FE"/>
<stop offset="1" stop-color="#0F5EF1"/>
</linearGradient>
</defs>
</svg>
